<svg width="272" height="242" viewBox="0 0 272 242" fill="none" xmlns="http://www.w3.org/2000/svg">
<g filter="url(#filter0_d_148_2445)">
<rect x="6" y="1" width="260" height="230" rx="10" fill="white"/>
</g>
<path d="M123.883 38.0527H112.076V39.957H121.598C121.495 41.5537 121.231 43.0918 120.763 44.5566L110.758 45.2305L111.139 47.252L120.06 46.4023C118.478 49.9033 115.533 52.9209 110.641 55.3086L111.93 57.0664C121.305 52.4521 123.868 45.5674 123.883 38.0527ZM128.248 61.373H130.533V47.8672H134.752V45.9336H130.533V35.3281H128.248V61.373ZM160.217 35.3281H157.99V61.373H160.217V35.3281ZM137.512 52.9648L137.805 54.9277C141.203 54.9424 146.667 54.8105 150.783 54.0488L150.637 52.3496C149.772 52.4668 148.835 52.5547 147.854 52.6426V40.5723H150.051V38.668H138.068V40.5723H140.266V52.9502C139.255 52.9648 138.317 52.9648 137.512 52.9648ZM142.375 52.9062V40.5723H145.715V52.7744C144.602 52.833 143.459 52.877 142.375 52.9062ZM149.289 47.3105H152.922V59.9961H155.119V35.9727H152.922V45.2305H149.289V47.3105Z" fill="#2C5282"/>
<path d="M106.833 176.5C105.653 176.5 104.663 176.1 103.863 175.3C103.065 174.503 102.667 173.514 102.667 172.333C102.667 171.153 103.065 170.164 103.863 169.367C104.663 168.567 105.653 168.167 106.833 168.167H165.167C166.347 168.167 167.336 168.567 168.133 169.367C168.933 170.164 169.333 171.153 169.333 172.333C169.333 173.514 168.933 174.503 168.133 175.3C167.336 176.1 166.347 176.5 165.167 176.5H106.833ZM119.333 159.833C114.75 159.833 110.826 158.201 107.563 154.937C104.299 151.674 102.667 147.75 102.667 143.167V109.833C102.667 107.542 103.483 105.579 105.117 103.946C106.747 102.315 108.708 101.5 111 101.5H169.333C171.625 101.5 173.588 102.315 175.221 103.946C176.851 105.579 177.667 107.542 177.667 109.833V122.333C177.667 124.625 176.851 126.586 175.221 128.217C173.588 129.85 171.625 130.667 169.333 130.667H161V143.167C161 147.75 159.368 151.674 156.104 154.937C152.84 158.201 148.917 159.833 144.333 159.833H119.333ZM119.333 151.5H144.333C146.625 151.5 148.588 150.683 150.221 149.05C151.851 147.419 152.667 145.458 152.667 143.167V109.833H111V143.167C111 145.458 111.817 147.419 113.45 149.05C115.081 150.683 117.042 151.5 119.333 151.5ZM161 122.333H169.333V109.833H161V122.333Z" fill="#2C5282"/>
<defs>
<filter id="filter0_d_148_2445" x="0" y="0" width="272" height="242" filterUnits="userSpaceOnUse" color-interpolation-filters="sRGB">
<feFlood flood-opacity="0" result="BackgroundImageFix"/>
<feColorMatrix in="SourceAlpha" type="matrix" values="0 0 0 0 0 0 0 0 0 0 0 0 0 0 0 0 0 0 127 0" result="hardAlpha"/>
<feMorphology radius="4" operator="erode" in="SourceAlpha" result="effect1_dropShadow_148_2445"/>
<feOffset dy="5"/>
<feGaussianBlur stdDeviation="5"/>
<feComposite in2="hardAlpha" operator="out"/>
<feColorMatrix type="matrix" values="0 0 0 0 0 0 0 0 0 0 0 0 0 0 0 0 0 0 0.25 0"/>
<feBlend mode="normal" in2="BackgroundImageFix" result="effect1_dropShadow_148_2445"/>
<feBlend mode="normal" in="SourceGraphic" in2="effect1_dropShadow_148_2445" result="shape"/>
</filter>
</defs>
</svg>
