<svg width="272" height="242" viewBox="0 0 272 242" fill="none" xmlns="http://www.w3.org/2000/svg">
<g filter="url(#filter0_d_148_2444)">
<rect x="6" y="1" width="260" height="230" rx="10" fill="white"/>
</g>
<path d="M73.9189 28.3281H71.6924V54.373H73.9189V28.3281ZM51.2139 45.9648L51.5068 47.9277C54.9053 47.9424 60.3691 47.8105 64.4854 47.0488L64.3389 45.3496C63.4746 45.4668 62.5371 45.5547 61.5557 45.6426V33.5723H63.7529V31.668H51.7705V33.5723H53.9678V45.9502C52.957 45.9648 52.0195 45.9648 51.2139 45.9648ZM56.0771 45.9062V33.5723H59.417V45.7744C58.3037 45.833 57.1611 45.877 56.0771 45.9062ZM62.9912 40.3105H66.624V52.9961H68.8213V28.9727H66.624V38.2305H62.9912V40.3105ZM91.9131 32.166V30.1738H89.5107V32.166C89.4961 36.6484 84.4424 40.5889 79.9307 41.4531L80.9854 43.3867C84.9258 42.4639 89.042 39.6807 90.7412 35.8574C92.4258 39.6807 96.5566 42.4785 100.497 43.3867L101.552 41.4531C97.0254 40.6035 91.9277 36.6338 91.9131 32.166ZM78.9346 50.8281H102.782V48.9238H78.9346V50.8281ZM127.456 42.4199H111.782V38.2305H126.606V36.3848H111.782V32.5176H127.163V30.584H109.438V44.2949H127.456V42.4199ZM106.362 50.9746H130.21V49.0703H106.362V50.9746ZM164.323 29.8223H145.046V31.7266H149.089V38.875H145.134V40.7207H164.235V38.875H160.31V31.7266H164.323V29.8223ZM142.79 45.7012H153.542V54.373H155.798V45.7012H166.638V43.7676H142.79V45.7012ZM151.374 38.875V31.7266H158.054V38.875H151.374ZM191.282 40.8672H175.579V32.6641H191.019V30.7598H173.294V42.7715H191.282V40.8672ZM170.247 50.8281H194.095V48.8945H170.247V50.8281ZM219.267 28.3281H216.952V34.8613H211.679V36.7949H216.952V43.5918H219.267V28.3281ZM197.792 41.5117L198.993 43.3281C202.084 42.2002 204.486 39.8125 205.614 36.7949C206.742 39.4902 209.013 41.6729 211.942 42.7422L213.144 40.9258C209.335 39.5635 206.728 36.3115 206.728 32.957V31.9316H212.558V30.0273H198.524V31.9316H204.413V32.957C204.413 36.6631 201.63 40.1494 197.792 41.5117ZM202.245 54.0215H219.267V44.8809H202.245V54.0215ZM204.53 52.1465V46.7266H217.011V52.1465H204.53Z" fill="#2C5282"/>
<path d="M97.5103 144.375C96.2569 144.375 95.2343 143.929 94.4426 143.037C93.651 142.148 93.3541 141.142 93.552 140.021C94.8055 133.49 98.302 128.623 104.042 125.423C109.781 122.224 116.049 120.625 122.844 120.625C129.639 120.625 135.906 122.224 141.646 125.423C147.385 128.623 150.882 133.49 152.135 140.021C152.333 141.142 152.036 142.148 151.245 143.037C150.453 143.929 149.43 144.375 148.177 144.375H97.5103ZM160.448 176.042V168.125H165.99L171.531 112.708H133.729L133.333 109.245C133.201 108.057 133.515 107.019 134.275 106.13C135.033 105.238 136.005 104.792 137.193 104.792H152.531V92.9167C152.531 91.7951 152.91 90.8544 153.667 90.0944C154.427 89.337 155.368 88.9583 156.489 88.9583C157.611 88.9583 158.552 89.337 159.312 90.0944C160.069 90.8544 160.448 91.7951 160.448 92.9167V104.792H175.885C177.073 104.792 178.062 105.22 178.854 106.078C179.646 106.936 179.976 107.958 179.844 109.146L173.708 170.302C173.51 171.885 172.802 173.238 171.583 174.359C170.361 175.481 168.892 176.042 167.177 176.042H160.448ZM160.448 168.125H165.99H160.448ZM141.745 136.458C139.832 133.819 137.144 131.84 133.682 130.521C130.217 129.201 126.538 128.542 122.646 128.542C118.753 128.542 115.076 129.201 111.614 130.521C108.149 131.84 105.46 133.819 103.547 136.458H141.745ZM96.9166 160.208C95.7951 160.208 94.8556 159.828 94.0983 159.068C93.3383 158.311 92.9583 157.372 92.9583 156.25C92.9583 155.128 93.3383 154.189 94.0983 153.432C94.8556 152.672 95.7951 152.292 96.9166 152.292H148.375C149.496 152.292 150.437 152.672 151.197 153.432C151.955 154.189 152.333 155.128 152.333 156.25C152.333 157.372 151.955 158.311 151.197 159.068C150.437 159.828 149.496 160.208 148.375 160.208H96.9166ZM96.9166 176.042C95.7951 176.042 94.8556 175.662 94.0983 174.902C93.3383 174.144 92.9583 173.205 92.9583 172.083C92.9583 170.962 93.3383 170.022 94.0983 169.265C94.8556 168.505 95.7951 168.125 96.9166 168.125H148.375C149.496 168.125 150.437 168.505 151.197 169.265C151.955 170.022 152.333 170.962 152.333 172.083C152.333 173.205 151.955 174.144 151.197 174.902C150.437 175.662 149.496 176.042 148.375 176.042H96.9166Z" fill="#2C5282"/>
<defs>
<filter id="filter0_d_148_2444" x="0" y="0" width="272" height="242" filterUnits="userSpaceOnUse" color-interpolation-filters="sRGB">
<feFlood flood-opacity="0" result="BackgroundImageFix"/>
<feColorMatrix in="SourceAlpha" type="matrix" values="0 0 0 0 0 0 0 0 0 0 0 0 0 0 0 0 0 0 127 0" result="hardAlpha"/>
<feMorphology radius="4" operator="erode" in="SourceAlpha" result="effect1_dropShadow_148_2444"/>
<feOffset dy="5"/>
<feGaussianBlur stdDeviation="5"/>
<feComposite in2="hardAlpha" operator="out"/>
<feColorMatrix type="matrix" values="0 0 0 0 0 0 0 0 0 0 0 0 0 0 0 0 0 0 0.25 0"/>
<feBlend mode="normal" in2="BackgroundImageFix" result="effect1_dropShadow_148_2444"/>
<feBlend mode="normal" in="SourceGraphic" in2="effect1_dropShadow_148_2444" result="shape"/>
</filter>
</defs>
</svg>
