<svg width="272" height="242" viewBox="0 0 272 242" fill="none" xmlns="http://www.w3.org/2000/svg">
<g filter="url(#filter0_d_148_2444)">
<rect x="6" y="1" width="260" height="230" rx="10" fill="white"/>
</g>
<path d="M104.953 29.8223H85.6758V31.7266H89.7188V38.875H85.7637V40.7207H104.865V38.875H100.939V31.7266H104.953V29.8223ZM83.4199 45.7012H94.1719V54.373H96.4277V45.7012H107.268V43.7676H83.4199V45.7012ZM92.0039 38.875V31.7266H98.6836V38.875H92.0039ZM131.912 40.8672H116.209V32.6641H131.648V30.7598H113.924V42.7715H131.912V40.8672ZM110.877 50.8281H134.725V48.8945H110.877V50.8281ZM159.135 30.877H141.176V32.7812H156.879V33.3965C156.879 34.5684 156.864 35.7988 156.806 37.1758L140.414 37.8496L140.795 39.8711L156.703 38.9189C156.557 40.75 156.293 42.8154 155.795 45.1738L158.051 45.4375C159.135 40.1348 159.105 36.5605 159.135 33.3965V30.877ZM138.305 50.8281H162.035V48.8652H149.877V42.127H147.621V48.8652H138.305V50.8281ZM186.826 42.4199H171.152V38.2305H185.977V36.3848H171.152V32.5176H186.533V30.584H168.809V44.2949H186.826V42.4199ZM165.732 50.9746H189.58V49.0703H165.732V50.9746Z" fill="#2C5282"/>
<path d="M97.5103 144.375C96.2569 144.375 95.2343 143.929 94.4426 143.037C93.651 142.148 93.3541 141.142 93.552 140.021C94.8055 133.49 98.302 128.623 104.042 125.423C109.781 122.224 116.049 120.625 122.844 120.625C129.639 120.625 135.906 122.224 141.646 125.423C147.385 128.623 150.882 133.49 152.135 140.021C152.333 141.142 152.036 142.148 151.245 143.037C150.453 143.929 149.43 144.375 148.177 144.375H97.5103ZM160.448 176.042V168.125H165.99L171.531 112.708H133.729L133.333 109.245C133.201 108.057 133.515 107.019 134.275 106.13C135.033 105.238 136.005 104.792 137.193 104.792H152.531V92.9167C152.531 91.7951 152.91 90.8544 153.667 90.0944C154.427 89.337 155.368 88.9583 156.489 88.9583C157.611 88.9583 158.552 89.337 159.312 90.0944C160.069 90.8544 160.448 91.7951 160.448 92.9167V104.792H175.885C177.073 104.792 178.062 105.22 178.854 106.078C179.646 106.936 179.976 107.958 179.844 109.146L173.708 170.302C173.51 171.885 172.802 173.238 171.583 174.359C170.361 175.481 168.892 176.042 167.177 176.042H160.448ZM160.448 168.125H165.99H160.448ZM141.745 136.458C139.832 133.819 137.144 131.84 133.682 130.521C130.217 129.201 126.538 128.542 122.646 128.542C118.753 128.542 115.076 129.201 111.614 130.521C108.149 131.84 105.46 133.819 103.547 136.458H141.745ZM96.9166 160.208C95.7951 160.208 94.8556 159.828 94.0983 159.068C93.3383 158.311 92.9583 157.372 92.9583 156.25C92.9583 155.128 93.3383 154.189 94.0983 153.432C94.8556 152.672 95.7951 152.292 96.9166 152.292H148.375C149.496 152.292 150.437 152.672 151.197 153.432C151.955 154.189 152.333 155.128 152.333 156.25C152.333 157.372 151.955 158.311 151.197 159.068C150.437 159.828 149.496 160.208 148.375 160.208H96.9166ZM96.9166 176.042C95.7951 176.042 94.8556 175.662 94.0983 174.902C93.3383 174.144 92.9583 173.205 92.9583 172.083C92.9583 170.962 93.3383 170.022 94.0983 169.265C94.8556 168.505 95.7951 168.125 96.9166 168.125H148.375C149.496 168.125 150.437 168.505 151.197 169.265C151.955 170.022 152.333 170.962 152.333 172.083C152.333 173.205 151.955 174.144 151.197 174.902C150.437 175.662 149.496 176.042 148.375 176.042H96.9166Z" fill="#2C5282"/>
<defs>
<filter id="filter0_d_148_2444" x="0" y="0" width="272" height="242" filterUnits="userSpaceOnUse" color-interpolation-filters="sRGB">
<feFlood flood-opacity="0" result="BackgroundImageFix"/>
<feColorMatrix in="SourceAlpha" type="matrix" values="0 0 0 0 0 0 0 0 0 0 0 0 0 0 0 0 0 0 127 0" result="hardAlpha"/>
<feMorphology radius="4" operator="erode" in="SourceAlpha" result="effect1_dropShadow_148_2444"/>
<feOffset dy="5"/>
<feGaussianBlur stdDeviation="5"/>
<feComposite in2="hardAlpha" operator="out"/>
<feColorMatrix type="matrix" values="0 0 0 0 0 0 0 0 0 0 0 0 0 0 0 0 0 0 0.25 0"/>
<feBlend mode="normal" in2="BackgroundImageFix" result="effect1_dropShadow_148_2444"/>
<feBlend mode="normal" in="SourceGraphic" in2="effect1_dropShadow_148_2444" result="shape"/>
</filter>
</defs>
</svg>
