<svg width="274" height="136" viewBox="0 0 274 136" fill="none" xmlns="http://www.w3.org/2000/svg">
<path d="M105.177 0H8.50362C4.12776 0 0.581543 3.3323 0.581543 7.4336V127.591C0.581543 131.697 4.1227 135.02 8.50362 135.02H105.177C109.558 135.02 113.099 131.697 113.099 127.596V7.43835C113.099 3.3323 109.558 0 105.182 0H105.177ZM56.8505 132.357C56.4203 132.38 55.9896 132.32 55.5848 132.181C55.18 132.043 54.8097 131.828 54.4965 131.55C54.1833 131.272 53.9338 130.937 53.7633 130.566C53.5928 130.195 53.5048 129.795 53.5048 129.39C53.5048 128.986 53.5928 128.586 53.7633 128.214C53.9338 127.843 54.1833 127.508 54.4965 127.23C54.8097 126.953 55.18 126.738 55.5848 126.599C55.9896 126.46 56.4203 126.401 56.8505 126.423C57.6506 126.475 58.3998 126.81 58.9469 127.361C59.494 127.911 59.7982 128.635 59.7982 129.388C59.7982 130.14 59.494 130.865 58.9469 131.415C58.3998 131.965 57.6506 132.3 56.8505 132.352V132.357ZM100.913 120.751C100.911 121.144 100.744 121.521 100.447 121.798C100.15 122.076 99.7483 122.232 99.3292 122.232H14.3718C13.9532 122.231 13.5519 122.074 13.2554 121.797C12.9589 121.52 12.7911 121.144 12.7884 120.751V13.6852C12.7884 12.864 13.4966 12.1995 14.3718 12.1995H99.3191C100.189 12.1995 100.897 12.864 100.897 13.6852L100.908 120.751H100.913Z" fill="#2C5282"/>
<path d="M66.0851 27.6733C66.0851 30.6189 68.4729 33.0067 71.4185 33.0067C74.364 33.0067 76.7518 30.6189 76.7518 27.6733C76.7518 24.7278 74.364 22.34 71.4185 22.34C68.4729 22.34 66.0851 24.7278 66.0851 27.6733ZM71.4185 28.6733H134.418V26.6733H71.4185V28.6733Z" fill="#2C5282"/>
<rect x="143.418" y="14" width="42" height="29" fill="#2C5282"/>
<rect x="187.418" y="16" width="84" height="25" stroke="#2C5282" stroke-width="4"/>
</svg>
