<svg width="344" height="199" viewBox="0 0 344 199" fill="none" xmlns="http://www.w3.org/2000/svg">
<rect width="344" height="199" fill="#1E1E1E"/>
<rect width="834" height="1194" transform="translate(-426 -465)" fill="white"/>
<g filter="url(#filter0_d_0_1)">
<rect x="4" width="336" height="190" fill="white"/>
</g>
<g clip-path="url(#clip0_0_1)">
<path d="M112.889 58.8889H98.4445V66.1111H120.111V44.4444H112.889V58.8889Z" fill="#2C5282"/>
<path d="M152.611 58.8889H138.167V66.1111H159.833V44.4444H152.611V58.8889Z" fill="#2C5282"/>
<path d="M112.889 98.6111H98.4445V105.833H120.111V84.1667H112.889V98.6111Z" fill="#2C5282"/>
<path d="M152.611 98.6111H138.167V105.833H159.833V84.1667H152.611V98.6111Z" fill="#2C5282"/>
<path d="M112.889 138.333H98.4445V145.556H120.111V123.889H112.889V138.333Z" fill="#2C5282"/>
<path d="M152.611 138.333H138.167V145.556H159.833V123.889H152.611V138.333Z" fill="#2C5282"/>
<path d="M192.333 69.7222C202.305 69.7222 210.389 61.6385 210.389 51.6667C210.389 41.6949 202.305 33.6111 192.333 33.6111C182.362 33.6111 174.278 41.6949 174.278 51.6667C174.278 61.6385 182.362 69.7222 192.333 69.7222Z" fill="#2C5282"/>
</g>
<path d="M245.25 77.5H239.625C239.625 73.7704 238.143 70.1935 235.506 67.5563C232.869 64.9191 229.292 63.4375 225.562 63.4375C221.833 63.4375 218.256 64.9191 215.619 67.5563C212.982 70.1935 211.5 73.7704 211.5 77.5H205.875C205.875 72.2786 207.949 67.271 211.641 63.5788C215.333 59.8867 220.341 57.8125 225.562 57.8125C230.784 57.8125 235.792 59.8867 239.484 63.5788C243.176 67.271 245.25 72.2786 245.25 77.5Z" fill="#2C5282"/>
<path d="M259.312 97.1875C257.859 97.1927 256.433 97.5807 255.178 98.3125C254.42 97.1098 253.37 96.1183 252.126 95.4299C250.882 94.7415 249.484 94.3787 248.062 94.375C246.609 94.3802 245.183 94.7682 243.928 95.5C242.905 93.8899 241.366 92.6741 239.563 92.051C237.76 91.4278 235.799 91.4341 234 92.0687V77.5C234 75.2622 233.111 73.1161 231.529 71.5338C229.946 69.9514 227.8 69.0625 225.562 69.0625C223.325 69.0625 221.179 69.9514 219.596 71.5338C218.014 73.1161 217.125 75.2622 217.125 77.5V108.719L210.853 104.444C209.415 103.373 207.668 102.8 205.875 102.812C204.201 102.808 202.565 103.302 201.172 104.231C199.78 105.159 198.695 106.481 198.056 108.027C197.417 109.574 197.252 111.276 197.583 112.916C197.913 114.557 198.724 116.062 199.912 117.241L222.412 137.772C225.598 140.623 229.725 142.196 234 142.187H248.062C253.284 142.187 258.291 140.113 261.984 136.421C265.676 132.729 267.75 127.721 267.75 122.5V105.625C267.75 103.387 266.861 101.241 265.279 99.6588C263.696 98.0764 261.55 97.1875 259.312 97.1875ZM262.125 122.5C262.125 126.23 260.643 129.806 258.006 132.444C255.369 135.081 251.792 136.562 248.062 136.562H234C231.157 136.597 228.399 135.597 226.237 133.75L203.878 113.219C203.358 112.695 203.066 111.988 203.062 111.25C203.062 110.728 203.208 110.216 203.482 109.771C203.757 109.327 204.15 108.968 204.617 108.734C205.084 108.501 205.607 108.402 206.128 108.449C206.648 108.496 207.145 108.687 207.562 109L222.75 119.406V77.5C222.75 76.7541 223.046 76.0387 223.574 75.5113C224.101 74.9838 224.817 74.6875 225.562 74.6875C226.308 74.6875 227.024 74.9838 227.551 75.5113C228.079 76.0387 228.375 76.7541 228.375 77.5V108.437H234V100C234 99.2541 234.296 98.5387 234.824 98.0113C235.351 97.4838 236.067 97.1875 236.812 97.1875C237.558 97.1875 238.274 97.4838 238.801 98.0113C239.329 98.5387 239.625 99.2541 239.625 100V108.437H245.25V102.812C245.25 102.067 245.546 101.351 246.074 100.824C246.601 100.296 247.317 100 248.062 100C248.808 100 249.524 100.296 250.051 100.824C250.579 101.351 250.875 102.067 250.875 102.812V108.437H256.5V105.625C256.5 104.879 256.796 104.164 257.324 103.636C257.851 103.109 258.567 102.812 259.312 102.812C260.058 102.812 260.774 103.109 261.301 103.636C261.829 104.164 262.125 104.879 262.125 105.625V122.5Z" fill="#2C5282"/>
<defs>
<filter id="filter0_d_0_1" x="0" y="0" width="344" height="199" filterUnits="userSpaceOnUse" color-interpolation-filters="sRGB">
<feFlood flood-opacity="0" result="BackgroundImageFix"/>
<feColorMatrix in="SourceAlpha" type="matrix" values="0 0 0 0 0 0 0 0 0 0 0 0 0 0 0 0 0 0 127 0" result="hardAlpha"/>
<feMorphology radius="4" operator="erode" in="SourceAlpha" result="effect1_dropShadow_0_1"/>
<feOffset dy="5"/>
<feGaussianBlur stdDeviation="4"/>
<feComposite in2="hardAlpha" operator="out"/>
<feColorMatrix type="matrix" values="0 0 0 0 0 0 0 0 0 0 0 0 0 0 0 0 0 0 0.25 0"/>
<feBlend mode="normal" in2="BackgroundImageFix" result="effect1_dropShadow_0_1"/>
<feBlend mode="normal" in="SourceGraphic" in2="effect1_dropShadow_0_1" result="shape"/>
</filter>
<clipPath id="clip0_0_1">
<rect width="130" height="130" fill="white" transform="translate(84 30)"/>
</clipPath>
</defs>
</svg>
