<svg width="194" height="138" viewBox="0 0 194 138" fill="none" xmlns="http://www.w3.org/2000/svg">
<path d="M30.5002 30.5003H15.25V38.1254H38.1253V15.2501H30.5002V30.5003Z" fill="#2C5282"/>
<path d="M72.4384 30.5003H57.1882V38.1254H80.0635V15.2501H72.4384V30.5003Z" fill="#2C5282"/>
<path d="M30.5002 72.4385H15.25V80.0636H38.1253V57.1883H30.5002V72.4385Z" fill="#2C5282"/>
<path d="M72.4384 72.4385H57.1882V80.0636H80.0635V57.1883H72.4384V72.4385Z" fill="#2C5282"/>
<path d="M30.5002 114.376H15.25V122.002H38.1253V99.1262H30.5002V114.376Z" fill="#2C5282"/>
<path d="M72.4384 114.376H57.1882V122.002H80.0635V99.1262H72.4384V114.376Z" fill="#2C5282"/>
<path d="M114.376 41.9379C124.905 41.9379 133.439 33.4033 133.439 22.8752C133.439 12.3472 124.905 3.81249 114.376 3.81249C103.848 3.81249 95.3137 12.3472 95.3137 22.8752C95.3137 33.4033 103.848 41.9379 114.376 41.9379Z" fill="#2C5282"/>
<path d="M170.245 50.1497H164.306C164.306 46.212 162.742 42.4357 159.957 39.6513C157.173 36.867 153.397 35.3028 149.459 35.3028C145.521 35.3028 141.745 36.867 138.961 39.6513C136.176 42.4357 134.612 46.212 134.612 50.1497H128.673C128.673 44.637 130.863 39.3501 134.761 35.452C138.659 31.5539 143.946 29.364 149.459 29.364C154.972 29.364 160.259 31.5539 164.157 35.452C168.055 39.3501 170.245 44.637 170.245 50.1497Z" fill="#2C5282"/>
<path d="M185.092 70.9354C183.558 70.9409 182.052 71.3506 180.727 72.1232C179.926 70.8534 178.818 69.8065 177.505 69.0798C176.191 68.353 174.715 67.9699 173.214 67.966C171.68 67.9715 170.175 68.3812 168.849 69.1538C167.769 67.4539 166.145 66.1703 164.241 65.5124C162.337 64.8544 160.267 64.8611 158.367 65.5311V50.1497C158.367 47.7871 157.429 45.5213 155.758 43.8507C154.088 42.1801 151.822 41.2416 149.459 41.2416C147.097 41.2416 144.831 42.1801 143.16 43.8507C141.49 45.5213 140.551 47.7871 140.551 50.1497V83.1099L133.929 78.5964C132.411 77.466 130.566 76.8613 128.674 76.8742C126.907 76.8698 125.178 77.391 123.709 78.3714C122.239 79.3518 121.094 80.7471 120.419 82.38C119.744 84.013 119.57 85.8097 119.919 87.5417C120.268 89.2738 121.124 90.8629 122.378 92.1071L146.134 113.784C149.497 116.794 153.854 118.454 158.367 118.446H173.214C178.727 118.446 184.014 116.256 187.912 112.358C191.81 108.46 194 103.173 194 97.6599V79.8436C194 77.481 193.062 75.2152 191.391 73.5446C189.72 71.8739 187.454 70.9354 185.092 70.9354ZM188.061 97.6599C188.061 101.598 186.497 105.374 183.713 108.158C180.928 110.943 177.152 112.507 173.214 112.507H158.367C155.366 112.543 152.454 111.488 150.172 109.537L126.565 87.8609C126.017 87.3078 125.707 86.5613 125.704 85.7823C125.704 85.2309 125.858 84.6903 126.148 84.2212C126.438 83.7522 126.852 83.3731 127.346 83.1264C127.839 82.8798 128.391 82.7754 128.94 82.825C129.489 82.8745 130.014 83.076 130.455 83.4068L146.49 94.3936V50.1497C146.49 49.3622 146.803 48.6069 147.36 48.05C147.916 47.4932 148.672 47.1803 149.459 47.1803C150.247 47.1803 151.002 47.4932 151.559 48.05C152.116 48.6069 152.429 49.3622 152.429 50.1497V82.813H158.367V73.9048C158.367 73.1173 158.68 72.362 159.237 71.8051C159.794 71.2483 160.549 70.9354 161.337 70.9354C162.124 70.9354 162.88 71.2483 163.436 71.8051C163.993 72.362 164.306 73.1173 164.306 73.9048V82.813H170.245V76.8742C170.245 76.0867 170.558 75.3314 171.115 74.7745C171.672 74.2176 172.427 73.9048 173.214 73.9048C174.002 73.9048 174.757 74.2176 175.314 74.7745C175.871 75.3314 176.184 76.0867 176.184 76.8742V82.813H182.123V79.8436C182.123 79.056 182.435 78.3008 182.992 77.7439C183.549 77.187 184.304 76.8742 185.092 76.8742C185.879 76.8742 186.635 77.187 187.192 77.7439C187.748 78.3008 188.061 79.056 188.061 79.8436V97.6599Z" fill="#2C5282"/>
</svg>
