<svg width="279" height="136" viewBox="0 0 279 136" fill="none" xmlns="http://www.w3.org/2000/svg">
<path d="M104.846 0H8.17207C3.79622 0 0.25 3.3323 0.25 7.4336V127.591C0.25 131.697 3.79116 135.02 8.17207 135.02H104.846C109.227 135.02 112.768 131.697 112.768 127.596V7.43835C112.768 3.3323 109.227 0 104.851 0H104.846ZM56.519 132.357C56.0887 132.38 55.658 132.32 55.2533 132.181C54.8485 132.043 54.4782 131.828 54.165 131.55C53.8518 131.272 53.6023 130.937 53.4317 130.566C53.2612 130.195 53.1733 129.795 53.1733 129.39C53.1733 128.986 53.2612 128.586 53.4317 128.214C53.6023 127.843 53.8518 127.508 54.165 127.23C54.4782 126.953 54.8485 126.738 55.2533 126.599C55.658 126.46 56.0887 126.401 56.519 126.423C57.319 126.475 58.0682 126.81 58.6153 127.361C59.1624 127.911 59.4667 128.635 59.4667 129.388C59.4667 130.14 59.1624 130.865 58.6153 131.415C58.0682 131.965 57.319 132.3 56.519 132.352V132.357ZM100.581 120.751C100.58 121.144 100.412 121.521 100.116 121.798C99.8187 122.076 99.4168 122.232 98.9977 122.232H14.0403C13.6216 122.231 13.2204 122.074 12.9239 121.797C12.6274 121.52 12.4595 121.144 12.4569 120.751V13.6852C12.4569 12.864 13.1651 12.1995 14.0403 12.1995H98.9876C99.8577 12.1995 100.566 12.864 100.566 13.6852L100.576 120.751H100.581Z" fill="#2C5282"/>
<path d="M67.3157 106.445C69.3985 108.527 72.7754 108.527 74.8582 106.445C76.9409 104.362 76.9409 100.985 74.8582 98.9021C72.7754 96.8193 69.3985 96.8193 67.3157 98.9021C65.2329 100.985 65.2329 104.362 67.3157 106.445ZM71.794 103.38L128.363 46.8119L126.948 45.3977L70.3798 101.966L71.794 103.38Z" fill="#2C5282"/>
<g filter="url(#filter0_d_22_349)">
<rect x="138.087" y="25.6733" width="132" height="40" rx="10" fill="white"/>
</g>
<path fill-rule="evenodd" clip-rule="evenodd" d="M246.587 32.6733C239.684 32.6733 234.087 38.2699 234.087 45.1733C234.087 52.0767 239.684 57.6733 246.587 57.6733C253.49 57.6733 259.087 52.0767 259.087 45.1733C259.087 38.2699 253.49 32.6733 246.587 32.6733ZM250.799 42.5677C251.006 42.3533 251.121 42.0663 251.118 41.7683C251.116 41.4704 250.996 41.1854 250.786 40.9747C250.575 40.764 250.29 40.6445 249.992 40.6419C249.694 40.6393 249.407 40.7538 249.193 40.9608L246.587 43.5665L243.981 40.9608C243.876 40.8523 243.751 40.7657 243.612 40.7062C243.474 40.6466 243.325 40.6153 243.174 40.614C243.023 40.6127 242.873 40.6414 242.734 40.6985C242.594 40.7557 242.467 40.8401 242.36 40.9468C242.254 41.0535 242.169 41.1803 242.112 41.32C242.055 41.4596 242.026 41.6093 242.028 41.7602C242.029 41.911 242.06 42.0602 242.12 42.1988C242.179 42.3374 242.266 42.4628 242.374 42.5677L244.98 45.1733L242.374 47.779C242.266 47.8838 242.179 48.0092 242.12 48.1479C242.06 48.2865 242.029 48.4356 242.028 48.5865C242.026 48.7374 242.055 48.887 242.112 49.0267C242.169 49.1664 242.254 49.2932 242.36 49.3999C242.467 49.5066 242.594 49.591 242.734 49.6481C242.873 49.7053 243.023 49.734 243.174 49.7327C243.325 49.7314 243.474 49.7001 243.612 49.6405C243.751 49.5809 243.876 49.4944 243.981 49.3858L246.587 46.7802L249.193 49.3858C249.407 49.5928 249.694 49.7074 249.992 49.7048C250.29 49.7022 250.575 49.5827 250.786 49.372C250.996 49.1613 251.116 48.8763 251.118 48.5783C251.121 48.2804 251.006 47.9933 250.799 47.779L248.194 45.1733L250.799 42.5677Z" fill="#4A4A4A"/>
<path d="M266.5 71.1733H263.375C263.375 69.1013 262.552 67.1142 261.087 65.6491C259.622 64.1839 257.635 63.3608 255.562 63.3608C253.49 63.3608 251.503 64.1839 250.038 65.6491C248.573 67.1142 247.75 69.1013 247.75 71.1733H244.625C244.625 68.2725 245.777 65.4905 247.829 63.4394C249.88 61.3882 252.662 60.2358 255.562 60.2358C258.463 60.2358 261.245 61.3882 263.296 63.4394C265.348 65.4905 266.5 68.2725 266.5 71.1733Z" fill="#2C5282"/>
<path d="M274.312 82.1108C273.505 82.1137 272.713 82.3293 272.016 82.7358C271.594 82.0677 271.011 81.5168 270.32 81.1344C269.629 80.752 268.852 80.5504 268.062 80.5483C267.255 80.5512 266.463 80.7668 265.766 81.1733C265.197 80.2789 264.342 79.6034 263.341 79.2572C262.339 78.911 261.249 78.9145 260.25 79.2671V71.1733C260.25 69.9301 259.756 68.7379 258.877 67.8588C257.998 66.9797 256.806 66.4858 255.562 66.4858C254.319 66.4858 253.127 66.9797 252.248 67.8588C251.369 68.7379 250.875 69.9301 250.875 71.1733V88.5171L247.391 86.1421C246.592 85.5472 245.621 85.2291 244.625 85.2358C243.695 85.2335 242.786 85.5078 242.012 86.0237C241.239 86.5396 240.636 87.2738 240.281 88.133C239.926 88.9923 239.835 89.9377 240.018 90.8491C240.202 91.7605 240.652 92.5967 241.312 93.2515L253.812 104.658C255.582 106.242 257.875 107.115 260.25 107.111H268.062C270.963 107.111 273.745 105.958 275.796 103.907C277.848 101.856 279 99.0741 279 96.1733V86.7983C279 85.5551 278.506 84.3629 277.627 83.4838C276.748 82.6047 275.556 82.1108 274.312 82.1108ZM275.875 96.1733C275.875 98.2453 275.052 100.232 273.587 101.698C272.122 103.163 270.134 103.986 268.062 103.986H260.25C258.671 104.005 257.138 103.45 255.937 102.423L243.516 91.0171C243.227 90.7261 243.064 90.3332 243.062 89.9233C243.062 89.6332 243.143 89.3487 243.296 89.1019C243.448 88.855 243.667 88.6556 243.926 88.5258C244.186 88.396 244.476 88.3411 244.765 88.3671C245.054 88.3932 245.33 88.4992 245.562 88.6733L254 94.4546V71.1733C254 70.7589 254.165 70.3615 254.458 70.0685C254.751 69.7755 255.148 69.6108 255.562 69.6108C255.977 69.6108 256.374 69.7755 256.667 70.0685C256.96 70.3615 257.125 70.7589 257.125 71.1733V88.3608H260.25V83.6733C260.25 83.2589 260.415 82.8615 260.708 82.5685C261.001 82.2755 261.398 82.1108 261.812 82.1108C262.227 82.1108 262.624 82.2755 262.917 82.5685C263.21 82.8615 263.375 83.2589 263.375 83.6733V88.3608H266.5V85.2358C266.5 84.8214 266.665 84.424 266.958 84.131C267.251 83.838 267.648 83.6733 268.062 83.6733C268.477 83.6733 268.874 83.838 269.167 84.131C269.46 84.424 269.625 84.8214 269.625 85.2358V88.3608H272.75V86.7983C272.75 86.3839 272.915 85.9865 273.208 85.6935C273.501 85.4005 273.898 85.2358 274.312 85.2358C274.727 85.2358 275.124 85.4005 275.417 85.6935C275.71 85.9865 275.875 86.3839 275.875 86.7983V96.1733Z" fill="#2C5282"/>
<defs>
<filter id="filter0_d_22_349" x="136.087" y="25.6733" width="136" height="49" filterUnits="userSpaceOnUse" color-interpolation-filters="sRGB">
<feFlood flood-opacity="0" result="BackgroundImageFix"/>
<feColorMatrix in="SourceAlpha" type="matrix" values="0 0 0 0 0 0 0 0 0 0 0 0 0 0 0 0 0 0 127 0" result="hardAlpha"/>
<feMorphology radius="4" operator="erode" in="SourceAlpha" result="effect1_dropShadow_22_349"/>
<feOffset dy="7"/>
<feGaussianBlur stdDeviation="3"/>
<feComposite in2="hardAlpha" operator="out"/>
<feColorMatrix type="matrix" values="0 0 0 0 0 0 0 0 0 0 0 0 0 0 0 0 0 0 0.25 0"/>
<feBlend mode="normal" in2="BackgroundImageFix" result="effect1_dropShadow_22_349"/>
<feBlend mode="normal" in="SourceGraphic" in2="effect1_dropShadow_22_349" result="shape"/>
</filter>
</defs>
</svg>
