<svg width="244" height="138" viewBox="0 0 244 138" fill="none" xmlns="http://www.w3.org/2000/svg">
<path d="M104.759 2.32666H8.08516C3.7093 2.32666 0.163086 5.65896 0.163086 9.76026V129.918C0.163086 134.024 3.70424 137.347 8.08516 137.347H104.759C109.14 137.347 112.681 134.024 112.681 129.923V9.76501C112.681 5.65896 109.14 2.32666 104.764 2.32666H104.759ZM56.4321 134.684C56.0018 134.706 55.5711 134.647 55.1664 134.508C54.7616 134.369 54.3913 134.154 54.0781 133.877C53.7648 133.599 53.5153 133.264 53.3448 132.893C53.1743 132.521 53.0863 132.121 53.0863 131.717C53.0863 131.312 53.1743 130.912 53.3448 130.541C53.5153 130.17 53.7648 129.835 54.0781 129.557C54.3913 129.279 54.7616 129.065 55.1664 128.926C55.5711 128.787 56.0018 128.727 56.4321 128.75C57.2321 128.802 57.9813 129.137 58.5284 129.687C59.0755 130.237 59.3798 130.962 59.3798 131.714C59.3798 132.467 59.0755 133.191 58.5284 133.742C57.9813 134.292 57.2321 134.627 56.4321 134.679V134.684ZM100.494 123.078C100.493 123.471 100.325 123.847 100.029 124.125C99.7318 124.403 99.3298 124.559 98.9108 124.559H13.9534C13.5347 124.557 13.1335 124.401 12.837 124.124C12.5405 123.846 12.3726 123.47 12.37 123.078V16.0119C12.37 15.1907 13.0782 14.5261 13.9534 14.5261H98.9007C99.7708 14.5261 100.479 15.1907 100.479 16.0119L100.489 123.078H100.494Z" fill="#2C5282"/>
<path d="M85.6667 27C85.6667 29.9455 88.0545 32.3333 91 32.3333C93.9455 32.3333 96.3333 29.9455 96.3333 27C96.3333 24.0545 93.9455 21.6667 91 21.6667C88.0545 21.6667 85.6667 24.0545 85.6667 27ZM91 28H154V26H91V28Z" fill="#2C5282"/>
<path d="M204.375 22.8906V20.5H202.891V22.8906C202.883 25.4531 201.43 28.1406 199.281 29.1719L200.203 30.375C201.797 29.5469 203.023 27.8672 203.648 25.8828C204.266 27.75 205.445 29.3125 206.969 30.1094L207.891 28.9219C205.805 27.9062 204.359 25.3672 204.375 22.8906ZM208.938 33.3281H210.422V26.1719H212.672V24.9062H210.422V19.3281H208.938V33.3281ZM227.709 26.1562H224.616V24.2812C225.702 23.8359 226.311 23.1328 226.319 22.2031C226.311 20.5391 224.389 19.5703 221.319 19.5781C218.241 19.5703 216.311 20.5391 216.319 22.2031C216.311 23.1328 216.92 23.8359 218.006 24.2734V26.1562H214.944V27.3594H227.709V26.1562ZM216.459 30.7969C216.459 32.4141 218.272 33.2969 221.319 33.2969C224.327 33.2969 226.139 32.4141 226.147 30.7969C226.139 29.1953 224.327 28.3125 221.319 28.3125C218.272 28.3125 216.459 29.1953 216.459 30.7969ZM217.85 22.2031C217.842 21.2656 219.139 20.7266 221.319 20.7188C223.483 20.7266 224.795 21.2656 224.788 22.2031C224.795 23.1406 223.483 23.6641 221.319 23.6719C219.139 23.6641 217.842 23.1406 217.85 22.2031ZM217.959 30.7969C217.952 29.9375 219.178 29.4531 221.319 29.4531C223.428 29.4531 224.663 29.9375 224.663 30.7969C224.663 31.6719 223.428 32.1719 221.319 32.1562C219.178 32.1719 217.952 31.6719 217.959 30.7969ZM219.506 26.1562V24.6719C220.053 24.75 220.663 24.7969 221.319 24.7969C221.983 24.7969 222.6 24.75 223.147 24.6641V26.1562H219.506ZM232.528 20.0469H231.044V26.5H237.497V23.9219H240.559V26.9688H242.044V19.3281H240.559V22.6875H237.497V20.0469H236.028V22.0938H232.528V20.0469ZM232.528 25.2969V23.25H236.028V25.2969H232.528ZM232.919 33.125H242.028V27.625H240.559V29.2031H234.388V27.625H232.919V33.125ZM234.388 31.9219V30.3594H240.559V31.9219H234.388Z" fill="#2C5282"/>
<path d="M177 37C171.477 37 167 32.523 167 27C167 21.477 171.477 17 177 17C182.523 17 187 21.477 187 27C187 32.523 182.523 37 177 37ZM176 26V32H178V26H176ZM176 22V24H178V22H176Z" fill="#2C5282"/>
</svg>
