<svg width="344" height="199" viewBox="0 0 344 199" fill="none" xmlns="http://www.w3.org/2000/svg">
<rect width="344" height="199" fill="#1E1E1E"/>
<rect width="834" height="1194" transform="translate(-424 -852)" fill="white"/>
<g filter="url(#filter0_d_0_1)">
<rect x="4" width="336" height="190" fill="white"/>
</g>
<path d="M154.596 27.3267H57.9221C53.5462 27.3267 50 30.659 50 34.7603V154.918C50 159.024 53.5412 162.347 57.9221 162.347H154.596C158.977 162.347 162.518 159.024 162.518 154.923V34.765C162.518 30.659 158.977 27.3267 154.601 27.3267H154.596ZM106.269 159.684C105.839 159.706 105.408 159.647 105.003 159.508C104.599 159.369 104.228 159.154 103.915 158.877C103.602 158.599 103.352 158.264 103.182 157.893C103.011 157.521 102.923 157.121 102.923 156.717C102.923 156.312 103.011 155.912 103.182 155.541C103.352 155.17 103.602 154.835 103.915 154.557C104.228 154.279 104.599 154.065 105.003 153.926C105.408 153.787 105.839 153.727 106.269 153.75C107.069 153.802 107.818 154.137 108.365 154.687C108.912 155.237 109.217 155.962 109.217 156.714C109.217 157.467 108.912 158.191 108.365 158.742C107.818 159.292 107.069 159.627 106.269 159.679V159.684ZM150.331 148.078C150.33 148.471 150.162 148.847 149.866 149.125C149.569 149.403 149.167 149.559 148.748 149.559H63.7903C63.3716 149.557 62.9704 149.401 62.6739 149.124C62.3774 148.846 62.2095 148.47 62.2069 148.078V41.0119C62.2069 40.1907 62.9151 39.5261 63.7903 39.5261H148.738C149.608 39.5261 150.316 40.1907 150.316 41.0119L150.326 148.078H150.331Z" fill="#2C5282"/>
<path d="M135.504 52C135.504 54.9455 137.891 57.3333 140.837 57.3333C143.782 57.3333 146.17 54.9455 146.17 52C146.17 49.0545 143.782 46.6667 140.837 46.6667C137.891 46.6667 135.504 49.0545 135.504 52ZM140.837 53H203.837V51H140.837V53Z" fill="#2C5282"/>
<path d="M254.212 47.8906V45.5H252.728V47.8906C252.72 50.4531 251.267 53.1406 249.118 54.1719L250.04 55.375C251.634 54.5469 252.86 52.8672 253.485 50.8828C254.103 52.75 255.282 54.3125 256.806 55.1094L257.728 53.9219C255.642 52.9062 254.196 50.3672 254.212 47.8906ZM258.774 58.3281H260.259V51.1719H262.509V49.9062H260.259V44.3281H258.774V58.3281ZM277.546 51.1562H274.453V49.2812C275.538 48.8359 276.148 48.1328 276.156 47.2031C276.148 45.5391 274.226 44.5703 271.156 44.5781C268.078 44.5703 266.148 45.5391 266.156 47.2031C266.148 48.1328 266.757 48.8359 267.843 49.2734V51.1562H264.781V52.3594H277.546V51.1562ZM266.296 55.7969C266.296 57.4141 268.109 58.2969 271.156 58.2969C274.163 58.2969 275.976 57.4141 275.984 55.7969C275.976 54.1953 274.163 53.3125 271.156 53.3125C268.109 53.3125 266.296 54.1953 266.296 55.7969ZM267.687 47.2031C267.679 46.2656 268.976 45.7266 271.156 45.7188C273.32 45.7266 274.632 46.2656 274.624 47.2031C274.632 48.1406 273.32 48.6641 271.156 48.6719C268.976 48.6641 267.679 48.1406 267.687 47.2031ZM267.796 55.7969C267.788 54.9375 269.015 54.4531 271.156 54.4531C273.265 54.4531 274.499 54.9375 274.499 55.7969C274.499 56.6719 273.265 57.1719 271.156 57.1562C269.015 57.1719 267.788 56.6719 267.796 55.7969ZM269.343 51.1562V49.6719C269.89 49.75 270.499 49.7969 271.156 49.7969C271.82 49.7969 272.437 49.75 272.984 49.6641V51.1562H269.343ZM282.365 45.0469H280.881V51.5H287.334V48.9219H290.396V51.9688H291.881V44.3281H290.396V47.6875H287.334V45.0469H285.865V47.0938H282.365V45.0469ZM282.365 50.2969V48.25H285.865V50.2969H282.365ZM282.756 58.125H291.865V52.625H290.396V54.2031H284.224V52.625H282.756V58.125ZM284.224 56.9219V55.3594H290.396V56.9219H284.224Z" fill="#2C5282"/>
<path d="M226.837 62C221.314 62 216.837 57.523 216.837 52C216.837 46.477 221.314 42 226.837 42C232.36 42 236.837 46.477 236.837 52C236.837 57.523 232.36 62 226.837 62ZM225.837 51V57H227.837V51H225.837ZM225.837 47V49H227.837V47H225.837Z" fill="#2C5282"/>
<defs>
<filter id="filter0_d_0_1" x="0" y="0" width="344" height="199" filterUnits="userSpaceOnUse" color-interpolation-filters="sRGB">
<feFlood flood-opacity="0" result="BackgroundImageFix"/>
<feColorMatrix in="SourceAlpha" type="matrix" values="0 0 0 0 0 0 0 0 0 0 0 0 0 0 0 0 0 0 127 0" result="hardAlpha"/>
<feMorphology radius="4" operator="erode" in="SourceAlpha" result="effect1_dropShadow_0_1"/>
<feOffset dy="5"/>
<feGaussianBlur stdDeviation="4"/>
<feComposite in2="hardAlpha" operator="out"/>
<feColorMatrix type="matrix" values="0 0 0 0 0 0 0 0 0 0 0 0 0 0 0 0 0 0 0.25 0"/>
<feBlend mode="normal" in2="BackgroundImageFix" result="effect1_dropShadow_0_1"/>
<feBlend mode="normal" in="SourceGraphic" in2="effect1_dropShadow_0_1" result="shape"/>
</filter>
</defs>
</svg>
