<svg width="348" height="199" viewBox="0 0 348 199" fill="none" xmlns="http://www.w3.org/2000/svg">
<rect width="348" height="199" fill="#1E1E1E"/>
<rect width="834" height="1194" transform="translate(-64 -852)" fill="white"/>
<g filter="url(#filter0_d_0_1)">
<rect x="4" width="340" height="190" fill="white"/>
</g>
<path d="M135.596 27H38.9221C34.5462 27 31 30.3323 31 34.4336V154.591C31 158.697 34.5412 162.02 38.9221 162.02H135.596C139.977 162.02 143.518 158.697 143.518 154.596V34.4383C143.518 30.3323 139.977 27 135.601 27H135.596ZM87.269 159.357C86.8387 159.38 86.408 159.32 86.0033 159.181C85.5985 159.043 85.2282 158.828 84.915 158.55C84.6018 158.272 84.3523 157.937 84.1817 157.566C84.0112 157.195 83.9233 156.795 83.9233 156.39C83.9233 155.986 84.0112 155.586 84.1817 155.214C84.3523 154.843 84.6018 154.508 84.915 154.23C85.2282 153.953 85.5985 153.738 86.0033 153.599C86.408 153.46 86.8387 153.401 87.269 153.423C88.069 153.475 88.8182 153.81 89.3653 154.361C89.9124 154.911 90.2167 155.635 90.2167 156.388C90.2167 157.14 89.9124 157.865 89.3653 158.415C88.8182 158.965 88.069 159.3 87.269 159.352V159.357ZM131.331 147.751C131.33 148.144 131.162 148.521 130.866 148.798C130.569 149.076 130.167 149.232 129.748 149.232H44.7903C44.3716 149.231 43.9704 149.074 43.6739 148.797C43.3774 148.52 43.2095 148.144 43.2069 147.751V40.6852C43.2069 39.864 43.9151 39.1995 44.7903 39.1995H129.738C130.608 39.1995 131.316 39.864 131.316 40.6852L131.326 147.751H131.331Z" fill="#2C5282"/>
<path d="M98.0657 133.445C100.148 135.527 103.525 135.527 105.608 133.445C107.691 131.362 107.691 127.985 105.608 125.902C103.525 123.819 100.148 123.819 98.0657 125.902C95.9829 127.985 95.9829 131.362 98.0657 133.445ZM102.544 130.38L159.113 73.8119L157.698 72.3977L101.13 128.966L102.544 130.38Z" fill="#2C5282"/>
<g filter="url(#filter1_d_0_1)">
<rect x="168.837" y="52.6733" width="132" height="40" rx="10" fill="white"/>
</g>
<path fill-rule="evenodd" clip-rule="evenodd" d="M277.337 59.6733C270.434 59.6733 264.837 65.2699 264.837 72.1733C264.837 79.0767 270.434 84.6733 277.337 84.6733C284.24 84.6733 289.837 79.0767 289.837 72.1733C289.837 65.2699 284.24 59.6733 277.337 59.6733ZM281.549 69.5677C281.756 69.3533 281.871 69.0663 281.868 68.7683C281.866 68.4704 281.746 68.1854 281.536 67.9747C281.325 67.764 281.04 67.6445 280.742 67.6419C280.444 67.6393 280.157 67.7538 279.943 67.9608L277.337 70.5665L274.731 67.9608C274.626 67.8523 274.501 67.7657 274.362 67.7062C274.224 67.6466 274.075 67.6153 273.924 67.614C273.773 67.6127 273.623 67.6414 273.484 67.6985C273.344 67.7557 273.217 67.8401 273.11 67.9468C273.004 68.0535 272.919 68.1803 272.862 68.32C272.805 68.4596 272.776 68.6093 272.778 68.7602C272.779 68.911 272.81 69.0602 272.87 69.1988C272.929 69.3374 273.016 69.4628 273.124 69.5677L275.73 72.1733L273.124 74.779C273.016 74.8838 272.929 75.0092 272.87 75.1479C272.81 75.2865 272.779 75.4356 272.778 75.5865C272.776 75.7374 272.805 75.887 272.862 76.0267C272.919 76.1664 273.004 76.2932 273.11 76.3999C273.217 76.5066 273.344 76.591 273.484 76.6481C273.623 76.7053 273.773 76.734 273.924 76.7327C274.075 76.7314 274.224 76.7001 274.362 76.6405C274.501 76.5809 274.626 76.4944 274.731 76.3858L277.337 73.7802L279.943 76.3858C280.157 76.5928 280.444 76.7074 280.742 76.7048C281.04 76.7022 281.325 76.5827 281.536 76.372C281.746 76.1613 281.866 75.8763 281.868 75.5783C281.871 75.2804 281.756 74.9933 281.549 74.779L278.944 72.1733L281.549 69.5677Z" fill="#4A4A4A"/>
<path d="M297.25 98.1733H294.125C294.125 96.1013 293.302 94.1142 291.837 92.6491C290.372 91.1839 288.385 90.3608 286.312 90.3608C284.24 90.3608 282.253 91.1839 280.788 92.6491C279.323 94.1142 278.5 96.1013 278.5 98.1733H275.375C275.375 95.2725 276.527 92.4905 278.579 90.4394C280.63 88.3882 283.412 87.2358 286.312 87.2358C289.213 87.2358 291.995 88.3882 294.046 90.4394C296.098 92.4905 297.25 95.2725 297.25 98.1733Z" fill="#2C5282"/>
<path d="M305.062 109.111C304.255 109.114 303.463 109.329 302.766 109.736C302.344 109.068 301.761 108.517 301.07 108.134C300.379 107.752 299.602 107.55 298.812 107.548C298.005 107.551 297.213 107.767 296.516 108.173C295.947 107.279 295.092 106.603 294.091 106.257C293.089 105.911 291.999 105.914 291 106.267V98.1733C291 96.9301 290.506 95.7379 289.627 94.8588C288.748 93.9797 287.556 93.4858 286.312 93.4858C285.069 93.4858 283.877 93.9797 282.998 94.8588C282.119 95.7379 281.625 96.9301 281.625 98.1733V115.517L278.141 113.142C277.342 112.547 276.371 112.229 275.375 112.236C274.445 112.234 273.536 112.508 272.762 113.024C271.989 113.54 271.386 114.274 271.031 115.133C270.676 115.992 270.585 116.938 270.768 117.849C270.952 118.761 271.402 119.597 272.062 120.251L284.562 131.658C286.332 133.242 288.625 134.115 291 134.111H298.812C301.713 134.111 304.495 132.958 306.546 130.907C308.598 128.856 309.75 126.074 309.75 123.173V113.798C309.75 112.555 309.256 111.363 308.377 110.484C307.498 109.605 306.306 109.111 305.062 109.111ZM306.625 123.173C306.625 125.245 305.802 127.232 304.337 128.698C302.872 130.163 300.884 130.986 298.812 130.986H291C289.421 131.005 287.888 130.45 286.687 129.423L274.266 118.017C273.977 117.726 273.814 117.333 273.812 116.923C273.812 116.633 273.893 116.349 274.046 116.102C274.198 115.855 274.417 115.656 274.676 115.526C274.936 115.396 275.226 115.341 275.515 115.367C275.804 115.393 276.08 115.499 276.312 115.673L284.75 121.455V98.1733C284.75 97.7589 284.915 97.3615 285.208 97.0685C285.501 96.7755 285.898 96.6108 286.312 96.6108C286.727 96.6108 287.124 96.7755 287.417 97.0685C287.71 97.3615 287.875 97.7589 287.875 98.1733V115.361H291V110.673C291 110.259 291.165 109.862 291.458 109.568C291.751 109.275 292.148 109.111 292.562 109.111C292.977 109.111 293.374 109.275 293.667 109.568C293.96 109.862 294.125 110.259 294.125 110.673V115.361H297.25V112.236C297.25 111.821 297.415 111.424 297.708 111.131C298.001 110.838 298.398 110.673 298.812 110.673C299.227 110.673 299.624 110.838 299.917 111.131C300.21 111.424 300.375 111.821 300.375 112.236V115.361H303.5V113.798C303.5 113.384 303.665 112.987 303.958 112.693C304.251 112.4 304.648 112.236 305.062 112.236C305.477 112.236 305.874 112.4 306.167 112.693C306.46 112.987 306.625 113.384 306.625 113.798V123.173Z" fill="#2C5282"/>
<defs>
<filter id="filter0_d_0_1" x="0" y="0" width="348" height="199" filterUnits="userSpaceOnUse" color-interpolation-filters="sRGB">
<feFlood flood-opacity="0" result="BackgroundImageFix"/>
<feColorMatrix in="SourceAlpha" type="matrix" values="0 0 0 0 0 0 0 0 0 0 0 0 0 0 0 0 0 0 127 0" result="hardAlpha"/>
<feMorphology radius="4" operator="erode" in="SourceAlpha" result="effect1_dropShadow_0_1"/>
<feOffset dy="5"/>
<feGaussianBlur stdDeviation="4"/>
<feComposite in2="hardAlpha" operator="out"/>
<feColorMatrix type="matrix" values="0 0 0 0 0 0 0 0 0 0 0 0 0 0 0 0 0 0 0.25 0"/>
<feBlend mode="normal" in2="BackgroundImageFix" result="effect1_dropShadow_0_1"/>
<feBlend mode="normal" in="SourceGraphic" in2="effect1_dropShadow_0_1" result="shape"/>
</filter>
<filter id="filter1_d_0_1" x="166.837" y="52.6733" width="136" height="49" filterUnits="userSpaceOnUse" color-interpolation-filters="sRGB">
<feFlood flood-opacity="0" result="BackgroundImageFix"/>
<feColorMatrix in="SourceAlpha" type="matrix" values="0 0 0 0 0 0 0 0 0 0 0 0 0 0 0 0 0 0 127 0" result="hardAlpha"/>
<feMorphology radius="4" operator="erode" in="SourceAlpha" result="effect1_dropShadow_0_1"/>
<feOffset dy="7"/>
<feGaussianBlur stdDeviation="3"/>
<feComposite in2="hardAlpha" operator="out"/>
<feColorMatrix type="matrix" values="0 0 0 0 0 0 0 0 0 0 0 0 0 0 0 0 0 0 0.25 0"/>
<feBlend mode="normal" in2="BackgroundImageFix" result="effect1_dropShadow_0_1"/>
<feBlend mode="normal" in="SourceGraphic" in2="effect1_dropShadow_0_1" result="shape"/>
</filter>
</defs>
</svg>
