<svg width="258" height="415" viewBox="0 0 258 415" fill="none" xmlns="http://www.w3.org/2000/svg">
<g filter="url(#filter0_d_148_2692)">
<rect x="2" width="254" height="406" fill="#2C5282"/>
</g>
<path d="M158.278 131.229C158.969 130.714 159.483 129.995 159.745 129.174C160.008 128.352 160.006 127.469 159.742 126.648C159.477 125.827 158.962 125.11 158.269 124.596C157.576 124.083 156.739 123.799 155.877 123.785L139.127 123.152C139.045 123.147 138.966 123.117 138.9 123.068C138.834 123.018 138.783 122.951 138.755 122.873L132.967 107.24C132.676 106.444 132.148 105.758 131.454 105.272C130.76 104.787 129.933 104.527 129.086 104.527C128.239 104.527 127.413 104.787 126.719 105.272C126.025 105.758 125.497 106.444 125.206 107.24L119.436 122.929C119.408 123.006 119.358 123.074 119.292 123.123C119.225 123.173 119.147 123.202 119.064 123.208L102.314 123.841C101.452 123.855 100.615 124.139 99.9223 124.652C99.2292 125.165 98.7141 125.883 98.4494 126.704C98.1847 127.525 98.1835 128.408 98.446 129.23C98.7085 130.051 99.2216 130.77 99.9133 131.285L113.053 141.614C113.119 141.666 113.168 141.736 113.194 141.815C113.221 141.895 113.223 141.98 113.202 142.061L108.679 158.085C108.445 158.901 108.468 159.77 108.744 160.572C109.021 161.375 109.538 162.073 110.225 162.571C110.913 163.069 111.737 163.344 112.586 163.357C113.435 163.37 114.267 163.122 114.97 162.645L128.854 153.339C128.922 153.292 129.003 153.267 129.086 153.267C129.169 153.267 129.251 153.292 129.319 153.339L143.203 162.645C143.896 163.138 144.725 163.403 145.576 163.403C146.426 163.403 147.256 163.138 147.949 162.645C148.636 162.151 149.154 161.457 149.431 160.657C149.707 159.857 149.729 158.991 149.493 158.178L144.934 142.098C144.909 142.018 144.911 141.931 144.937 141.851C144.964 141.772 145.015 141.702 145.083 141.652L158.278 131.229Z" fill="white"/>
<path d="M98.6426 276.652H87.3223V279.781H94.8809V285.23H87.3574V297.535H89.5723C93.5625 297.518 97.1484 297.447 101.42 296.656L101.104 293.457C97.5 294.107 94.3887 294.248 91.1191 294.283V288.324H98.6426V276.652ZM100.049 287.586H103.529V303.512H107.221V274.016H103.529V284.387H100.049V287.586ZM110.033 305.129H113.76V273.348H110.033V305.129ZM144.697 273.383H140.971V289.906H144.697V273.383ZM118.752 288.676H131.303V283.367H134.572V289.73H138.229V273.98H134.572V280.203H131.303V275.176H127.682V278.902H122.443V275.176H118.752V288.676ZM122.443 285.652V281.82H127.682V285.652H122.443ZM123.182 294.23H140.795V296.445H123.217V304.848H145.822V301.824H127.154V299.328H144.697V291.207H123.182V294.23ZM168.568 276.547H164.174L157.881 280.625V284.809L163.822 281.012H163.963V302H168.568V276.547Z" fill="white"/>
<defs>
<filter id="filter0_d_148_2692" x="0" y="0" width="258" height="415" filterUnits="userSpaceOnUse" color-interpolation-filters="sRGB">
<feFlood flood-opacity="0" result="BackgroundImageFix"/>
<feColorMatrix in="SourceAlpha" type="matrix" values="0 0 0 0 0 0 0 0 0 0 0 0 0 0 0 0 0 0 127 0" result="hardAlpha"/>
<feMorphology radius="4" operator="erode" in="SourceAlpha" result="effect1_dropShadow_148_2692"/>
<feOffset dy="7"/>
<feGaussianBlur stdDeviation="3"/>
<feComposite in2="hardAlpha" operator="out"/>
<feColorMatrix type="matrix" values="0 0 0 0 0 0 0 0 0 0 0 0 0 0 0 0 0 0 0.25 0"/>
<feBlend mode="normal" in2="BackgroundImageFix" result="effect1_dropShadow_148_2692"/>
<feBlend mode="normal" in="SourceGraphic" in2="effect1_dropShadow_148_2692" result="shape"/>
</filter>
</defs>
</svg>
