<svg width="257" height="415" viewBox="0 0 257 415" fill="none" xmlns="http://www.w3.org/2000/svg">
<g filter="url(#filter0_d_148_2736)">
<rect x="2" width="253" height="406" fill="#2C5282"/>
</g>
<path d="M117.278 131.229C117.97 130.714 118.483 129.995 118.745 129.174C119.008 128.352 119.006 127.469 118.742 126.648C118.477 125.827 117.962 125.11 117.269 124.596C116.576 124.083 115.739 123.799 114.877 123.785L98.127 123.152C98.0446 123.147 97.9657 123.117 97.8996 123.068C97.8336 123.018 97.7833 122.951 97.7548 122.873L91.9667 107.24C91.6759 106.444 91.1477 105.758 90.4536 105.272C89.7596 104.787 88.9331 104.527 88.0863 104.527C87.2394 104.527 86.413 104.787 85.7189 105.272C85.0249 105.758 84.4967 106.444 84.2059 107.24L78.4364 122.929C78.4079 123.006 78.3576 123.074 78.2915 123.123C78.2255 123.173 78.1466 123.202 78.0642 123.208L61.3142 123.841C60.4518 123.855 59.6154 124.139 58.9223 124.652C58.2292 125.165 57.7142 125.883 57.4494 126.704C57.1847 127.525 57.1835 128.408 57.446 129.23C57.7086 130.051 58.2217 130.77 58.9134 131.285L72.0528 141.614C72.1186 141.666 72.1677 141.736 72.1942 141.815C72.2206 141.895 72.2233 141.98 72.2017 142.061L67.6792 158.085C67.4448 158.901 67.4675 159.77 67.7442 160.572C68.0209 161.375 68.5381 162.073 69.2255 162.571C69.9129 163.069 70.7371 163.344 71.586 163.357C72.4348 163.37 73.2672 163.122 73.9698 162.645L87.8536 153.339C87.922 153.292 88.0032 153.267 88.0863 153.267C88.1694 153.267 88.2505 153.292 88.3189 153.339L102.203 162.645C102.896 163.138 103.725 163.403 104.576 163.403C105.426 163.403 106.256 163.138 106.949 162.645C107.636 162.151 108.154 161.457 108.431 160.657C108.707 159.857 108.729 158.991 108.493 158.178L103.934 142.098C103.909 142.018 103.911 141.931 103.937 141.851C103.964 141.772 104.015 141.702 104.083 141.652L117.278 131.229Z" fill="white"/>
<path d="M199.278 131.229C199.97 130.714 200.483 129.995 200.745 129.174C201.008 128.352 201.006 127.469 200.742 126.648C200.477 125.827 199.962 125.11 199.269 124.596C198.576 124.083 197.739 123.799 196.877 123.785L180.127 123.152C180.045 123.147 179.966 123.117 179.9 123.068C179.834 123.018 179.783 122.951 179.755 122.873L173.967 107.24C173.676 106.444 173.148 105.758 172.454 105.272C171.76 104.787 170.933 104.527 170.086 104.527C169.239 104.527 168.413 104.787 167.719 105.272C167.025 105.758 166.497 106.444 166.206 107.24L160.436 122.929C160.408 123.006 160.358 123.074 160.292 123.123C160.226 123.173 160.147 123.202 160.064 123.208L143.314 123.841C142.452 123.855 141.615 124.139 140.922 124.652C140.229 125.165 139.714 125.883 139.449 126.704C139.185 127.525 139.184 128.408 139.446 129.23C139.709 130.051 140.222 130.77 140.913 131.285L154.053 141.614C154.119 141.666 154.168 141.736 154.194 141.815C154.221 141.895 154.223 141.98 154.202 142.061L149.679 158.085C149.445 158.901 149.468 159.77 149.744 160.572C150.021 161.375 150.538 162.073 151.225 162.571C151.913 163.069 152.737 163.344 153.586 163.357C154.435 163.37 155.267 163.122 155.97 162.645L169.854 153.339C169.922 153.292 170.003 153.267 170.086 153.267C170.169 153.267 170.251 153.292 170.319 153.339L184.203 162.645C184.896 163.138 185.725 163.403 186.576 163.403C187.426 163.403 188.256 163.138 188.949 162.645C189.636 162.151 190.154 161.457 190.431 160.657C190.707 159.857 190.729 158.991 190.493 158.178L185.934 142.098C185.909 142.018 185.911 141.931 185.937 141.851C185.964 141.772 186.015 141.702 186.083 141.652L199.278 131.229Z" fill="white"/>
<path d="M96.5586 276.652H85.2383V279.781H92.7969V285.23H85.2734V297.535H87.4883C91.4785 297.518 95.0645 297.447 99.3359 296.656L99.0195 293.457C95.416 294.107 92.3047 294.248 89.0352 294.283V288.324H96.5586V276.652ZM97.9648 287.586H101.445V303.512H105.137V274.016H101.445V284.387H97.9648V287.586ZM107.949 305.129H111.676V273.348H107.949V305.129ZM142.613 273.383H138.887V289.906H142.613V273.383ZM116.668 288.676H129.219V283.367H132.488V289.73H136.145V273.98H132.488V280.203H129.219V275.176H125.598V278.902H120.359V275.176H116.668V288.676ZM120.359 285.652V281.82H125.598V285.652H120.359ZM121.098 294.23H138.711V296.445H121.133V304.848H143.738V301.824H125.07V299.328H142.613V291.207H121.098V294.23ZM156.148 302H173.832V298.168H162.512V297.992L167.047 293.492C172.057 288.764 173.428 286.443 173.445 283.578C173.428 279.307 169.93 276.195 164.727 276.195C159.646 276.195 156.025 279.324 156.043 284.141H160.402C160.385 281.557 162.072 279.922 164.691 279.922C167.17 279.922 169.051 281.416 169.051 283.789C169.051 285.934 167.715 287.445 165.148 290.012L156.148 298.695V302Z" fill="white"/>
<defs>
<filter id="filter0_d_148_2736" x="0" y="0" width="257" height="415" filterUnits="userSpaceOnUse" color-interpolation-filters="sRGB">
<feFlood flood-opacity="0" result="BackgroundImageFix"/>
<feColorMatrix in="SourceAlpha" type="matrix" values="0 0 0 0 0 0 0 0 0 0 0 0 0 0 0 0 0 0 127 0" result="hardAlpha"/>
<feMorphology radius="4" operator="erode" in="SourceAlpha" result="effect1_dropShadow_148_2736"/>
<feOffset dy="7"/>
<feGaussianBlur stdDeviation="3"/>
<feComposite in2="hardAlpha" operator="out"/>
<feColorMatrix type="matrix" values="0 0 0 0 0 0 0 0 0 0 0 0 0 0 0 0 0 0 0.25 0"/>
<feBlend mode="normal" in2="BackgroundImageFix" result="effect1_dropShadow_148_2736"/>
<feBlend mode="normal" in="SourceGraphic" in2="effect1_dropShadow_148_2736" result="shape"/>
</filter>
</defs>
</svg>
