<svg width="258" height="415" viewBox="0 0 258 415" fill="none" xmlns="http://www.w3.org/2000/svg">
<g filter="url(#filter0_d_148_2701)">
<rect x="2" width="254" height="406" fill="white"/>
</g>
<path d="M117.278 164.229C117.97 163.714 118.483 162.995 118.745 162.174C119.008 161.352 119.006 160.469 118.742 159.648C118.477 158.827 117.962 158.11 117.269 157.596C116.576 157.083 115.739 156.799 114.877 156.785L98.127 156.152C98.0446 156.147 97.9657 156.117 97.8996 156.068C97.8336 156.018 97.7833 155.951 97.7548 155.873L91.9667 140.24C91.6759 139.444 91.1477 138.758 90.4536 138.272C89.7596 137.787 88.9331 137.527 88.0863 137.527C87.2394 137.527 86.413 137.787 85.7189 138.272C85.0249 138.758 84.4967 139.444 84.2059 140.24L78.4364 155.929C78.4079 156.006 78.3576 156.074 78.2915 156.123C78.2255 156.173 78.1466 156.202 78.0642 156.208L61.3142 156.841C60.4518 156.855 59.6154 157.139 58.9223 157.652C58.2292 158.165 57.7142 158.883 57.4494 159.704C57.1847 160.525 57.1835 161.408 57.446 162.23C57.7086 163.051 58.2217 163.77 58.9134 164.285L72.0528 174.614C72.1186 174.666 72.1677 174.736 72.1942 174.815C72.2206 174.895 72.2233 174.98 72.2017 175.061L67.6792 191.085C67.4448 191.901 67.4675 192.77 67.7442 193.572C68.0209 194.375 68.5381 195.073 69.2255 195.571C69.9129 196.069 70.7371 196.344 71.586 196.357C72.4348 196.37 73.2672 196.122 73.9698 195.645L87.8536 186.339C87.922 186.292 88.0032 186.267 88.0863 186.267C88.1694 186.267 88.2505 186.292 88.3189 186.339L102.203 195.645C102.896 196.138 103.725 196.403 104.576 196.403C105.426 196.403 106.256 196.138 106.949 195.645C107.636 195.151 108.154 194.457 108.431 193.657C108.707 192.857 108.729 191.991 108.493 191.178L103.934 175.098C103.909 175.018 103.911 174.931 103.937 174.851C103.964 174.772 104.015 174.702 104.083 174.652L117.278 164.229Z" fill="#2C5282"/>
<path d="M199.278 164.229C199.969 163.714 200.483 162.995 200.745 162.174C201.008 161.352 201.006 160.469 200.742 159.648C200.477 158.827 199.962 158.11 199.269 157.596C198.576 157.083 197.739 156.799 196.877 156.785L180.127 156.152C180.045 156.147 179.966 156.117 179.9 156.068C179.834 156.018 179.783 155.951 179.755 155.873L173.967 140.24C173.676 139.444 173.148 138.758 172.454 138.272C171.76 137.787 170.933 137.527 170.086 137.527C169.239 137.527 168.413 137.787 167.719 138.272C167.025 138.758 166.497 139.444 166.206 140.24L160.436 155.929C160.408 156.006 160.358 156.074 160.292 156.123C160.225 156.173 160.147 156.202 160.064 156.208L143.314 156.841C142.452 156.855 141.615 157.139 140.922 157.652C140.229 158.165 139.714 158.883 139.449 159.704C139.185 160.525 139.183 161.408 139.446 162.23C139.709 163.051 140.222 163.77 140.913 164.285L154.053 174.614C154.119 174.666 154.168 174.736 154.194 174.815C154.221 174.895 154.223 174.98 154.202 175.061L149.679 191.085C149.445 191.901 149.468 192.77 149.744 193.572C150.021 194.375 150.538 195.073 151.225 195.571C151.913 196.069 152.737 196.344 153.586 196.357C154.435 196.37 155.267 196.122 155.97 195.645L169.854 186.339C169.922 186.292 170.003 186.267 170.086 186.267C170.169 186.267 170.251 186.292 170.319 186.339L184.203 195.645C184.896 196.138 185.725 196.403 186.576 196.403C187.426 196.403 188.256 196.138 188.949 195.645C189.636 195.151 190.154 194.457 190.431 193.657C190.707 192.857 190.729 191.991 190.493 191.178L185.934 175.098C185.909 175.018 185.911 174.931 185.937 174.851C185.964 174.772 186.015 174.702 186.083 174.652L199.278 164.229Z" fill="#2C5282"/>
<path d="M158.278 93.2294C158.97 92.7142 159.483 91.9953 159.745 91.1737C160.008 90.3521 160.006 89.4689 159.742 88.648C159.477 87.8271 158.962 87.1096 158.269 86.5962C157.576 86.0827 156.739 85.7991 155.877 85.785L139.127 85.1522C139.045 85.1465 138.966 85.1172 138.9 85.0676C138.834 85.0181 138.783 84.9505 138.755 84.8731L132.967 69.2397C132.676 68.4444 132.148 67.7576 131.454 67.2723C130.76 66.7871 129.933 66.5269 129.086 66.5269C128.239 66.5269 127.413 66.7871 126.719 67.2723C126.025 67.7576 125.497 68.4444 125.206 69.2397L119.436 84.9289C119.408 85.0064 119.358 85.0739 119.292 85.1235C119.226 85.173 119.147 85.2024 119.064 85.2081L102.314 85.8408C101.452 85.8549 100.615 86.1386 99.9223 86.652C99.2292 87.1654 98.7142 87.8829 98.4494 88.7038C98.1847 89.5247 98.1835 90.4079 98.446 91.2295C98.7086 92.0511 99.2217 92.77 99.9134 93.2853L113.053 103.614C113.119 103.666 113.168 103.736 113.194 103.815C113.221 103.895 113.223 103.98 113.202 104.061L108.679 120.085C108.445 120.901 108.468 121.77 108.744 122.572C109.021 123.375 109.538 124.073 110.225 124.571C110.913 125.069 111.737 125.344 112.586 125.357C113.435 125.37 114.267 125.122 114.97 124.645L128.854 115.339C128.922 115.292 129.003 115.267 129.086 115.267C129.169 115.267 129.251 115.292 129.319 115.339L143.203 124.645C143.896 125.138 144.725 125.403 145.576 125.403C146.426 125.403 147.256 125.138 147.949 124.645C148.636 124.151 149.154 123.457 149.431 122.657C149.707 121.857 149.729 120.991 149.493 120.178L144.934 104.098C144.909 104.018 144.911 103.931 144.937 103.851C144.964 103.772 145.015 103.702 145.083 103.652L158.278 93.2294Z" fill="#2C5282"/>
<path d="M94.7246 277.074H83.5098V279.359H92.0879V285.582H83.5801V297.148H85.6543C89.6094 297.131 93.1953 297.025 97.6426 296.234L97.4316 293.949C93.2656 294.688 89.8555 294.793 86.252 294.828V287.867H94.7246V277.074ZM96.2363 287.129H100.244V303.195H102.846V274.367H100.244V284.879H96.2363V287.129ZM106.607 304.848H109.244V273.594H106.607V304.848ZM140.182 273.629H137.545V290.082H140.182V273.629ZM115.08 288.57H127.244V283.016H131.393V289.906H133.994V274.262H131.393V280.695H127.244V275.457H124.643V279.605H117.682V275.457H115.08V288.57ZM117.682 286.391V281.75H124.643V286.391H117.682ZM119.439 293.773H137.475V296.797H119.51V304.496H141.447V302.281H122.252V298.906H140.182V291.594H119.439V293.773ZM163.701 302.352C168.781 302.352 172.578 299.258 172.561 295.074C172.578 291.84 170.574 289.467 167.252 288.957V288.781C169.924 288.025 171.611 285.916 171.576 283.016C171.611 279.377 168.658 276.195 163.807 276.195C159.289 276.195 155.527 278.902 155.369 282.945H158.428C158.568 280.449 161.047 278.955 163.771 278.938C166.672 278.955 168.535 280.643 168.518 283.191C168.535 285.811 166.373 287.551 163.279 287.551H161.205V290.328H163.279C167.234 290.346 169.449 292.297 169.467 295.074C169.449 297.729 167.023 299.539 163.666 299.539C160.625 299.539 158.217 298.027 158.041 295.602H154.842C155 299.645 158.639 302.352 163.701 302.352Z" fill="black"/>
<defs>
<filter id="filter0_d_148_2701" x="0" y="0" width="258" height="415" filterUnits="userSpaceOnUse" color-interpolation-filters="sRGB">
<feFlood flood-opacity="0" result="BackgroundImageFix"/>
<feColorMatrix in="SourceAlpha" type="matrix" values="0 0 0 0 0 0 0 0 0 0 0 0 0 0 0 0 0 0 127 0" result="hardAlpha"/>
<feMorphology radius="4" operator="erode" in="SourceAlpha" result="effect1_dropShadow_148_2701"/>
<feOffset dy="7"/>
<feGaussianBlur stdDeviation="3"/>
<feComposite in2="hardAlpha" operator="out"/>
<feColorMatrix type="matrix" values="0 0 0 0 0 0 0 0 0 0 0 0 0 0 0 0 0 0 0.25 0"/>
<feBlend mode="normal" in2="BackgroundImageFix" result="effect1_dropShadow_148_2701"/>
<feBlend mode="normal" in="SourceGraphic" in2="effect1_dropShadow_148_2701" result="shape"/>
</filter>
</defs>
</svg>
