<svg width="100" height="96" viewBox="0 0 100 96" fill="none" xmlns="http://www.w3.org/2000/svg">
<g clip-path="url(#clip0_22_233)">
<path d="M99.9999 35.2756V25.152H52.0544C53.6781 16.8897 54.4576 8.49499 54.3817 0.0872803H-0.000110975V10.2284L41.6362 10.0713C41.227 15.1737 40.2952 20.225 38.8544 25.152L-0.0183105 25.2393V35.3629L34.5271 35.1535C28.1635 47.1098 23.6181 54.3535 -0.0183105 61.1782V73.3964C28.8908 67.3745 42.6544 52.7127 49.0726 35.3978H66.2908V43.776C66.2908 60.6895 57.9271 73.1346 41.6544 81.3905L41.8181 96.1222C53.9272 90.6066 68.2362 79.1564 72.9999 65.4895C77.7635 78.1615 87.6362 90.9906 99.9271 96.1222V81.9316C86.7271 74.112 79.2726 60.0785 79.2726 43.776V35.3978L99.9999 35.2756Z" fill="#2C5282"/>
</g>
<defs>
<clipPath id="clip0_22_233">
<rect width="100" height="96" fill="white"/>
</clipPath>
</defs>
</svg>
