<svg width="42" height="40" viewBox="0 0 42 40" fill="none" xmlns="http://www.w3.org/2000/svg">
<g clip-path="url(#clip0_22_318)">
<path d="M41.6667 14.6982V10.48H21.6894C22.3659 7.0374 22.6907 3.53959 22.6591 0.036377H3.35276e-06V4.26183L17.3485 4.19638C17.178 6.32238 16.7897 8.42708 16.1894 10.48L-0.0075798 10.5164V14.7346L14.3864 14.6473C11.7348 19.6291 9.84091 22.6473 -0.0075798 25.4909V30.5818C12.0379 28.0727 17.7727 21.9636 20.447 14.7491H27.6212V18.24C27.6212 25.2873 24.1364 30.4727 17.3561 33.9127L17.4242 40.0509C22.4697 37.7527 28.4318 32.9818 30.4167 27.2873C32.4015 32.5673 36.5152 37.9127 41.6364 40.0509V34.1382C36.1364 30.88 33.0303 25.0327 33.0303 18.24V14.7491L41.6667 14.6982Z" fill="white"/>
</g>
<defs>
<clipPath id="clip0_22_318">
<rect width="41.6667" height="40" fill="white"/>
</clipPath>
</defs>
</svg>
