<svg width="45" height="46" viewBox="0 0 45 46" fill="none" xmlns="http://www.w3.org/2000/svg">
<g clip-path="url(#clip0_28_69)">
<path d="M42.5 21.2833C42.9646 20.9372 43.3092 20.4544 43.4856 19.9026C43.6619 19.3507 43.6611 18.7576 43.4833 18.2062C43.3055 17.6549 42.9596 17.173 42.4941 16.8281C42.0285 16.4833 41.4668 16.2928 40.8876 16.2833L29.6375 15.8583C29.5822 15.8545 29.5292 15.8348 29.4848 15.8015C29.4405 15.7682 29.4067 15.7229 29.3875 15.6708L25.5 5.17082C25.3047 4.63662 24.95 4.17534 24.4838 3.84944C24.0176 3.52354 23.4626 3.34875 22.8938 3.34875C22.325 3.34875 21.77 3.52354 21.3038 3.84944C20.8376 4.17534 20.4829 4.63662 20.2875 5.17082L16.4125 15.7083C16.3934 15.7604 16.3596 15.8057 16.3152 15.839C16.2709 15.8723 16.2179 15.892 16.1625 15.8958L4.91255 16.3208C4.3333 16.3303 3.77154 16.5208 3.30604 16.8656C2.84053 17.2105 2.49462 17.6924 2.31681 18.2437C2.139 18.7951 2.1382 19.3882 2.31453 19.9401C2.49086 20.4919 2.83547 20.9747 3.30005 21.3208L12.125 28.2583C12.1692 28.2931 12.2022 28.34 12.22 28.3933C12.2378 28.4467 12.2395 28.504 12.225 28.5583L9.18755 39.3208C9.03014 39.8689 9.04539 40.4521 9.23122 40.9912C9.41705 41.5303 9.76443 41.999 10.2261 42.3337C10.6878 42.6683 11.2413 42.8526 11.8115 42.8615C12.3816 42.8704 12.9407 42.7034 13.4125 42.3833L22.7375 36.1333C22.7835 36.1016 22.838 36.0846 22.8938 36.0846C22.9496 36.0846 23.0041 36.1016 23.05 36.1333L32.375 42.3833C32.8406 42.7144 33.3976 42.8922 33.9688 42.8922C34.54 42.8922 35.097 42.7144 35.5625 42.3833C36.0243 42.0518 36.3721 41.5854 36.5579 41.0481C36.7436 40.5109 36.7584 39.9293 36.6001 39.3833L33.5375 28.5833C33.5213 28.5291 33.5222 28.4712 33.5401 28.4175C33.558 28.3638 33.592 28.317 33.6375 28.2833L42.5 21.2833Z" fill="white"/>
</g>
<defs>
<clipPath id="clip0_28_69">
<rect width="45" height="45" fill="white" transform="translate(0 0.308319)"/>
</clipPath>
</defs>
</svg>
